Genre: Action | Adventure | Sci-Fi
Year: 1995
Country: USA
Runtime: 135 min
Director: Kevin Costner
Cast: Kevin Costner, Jeanne Tripplehorn and
Dennis Hopper.

.: Plot :.
The polar ice caps have melted, and the earth is covered by water. The remaining people travel the seas, in search of survival. Several different societies exist. The Mariner falls from his customary and solitary existence into having to care for a woman and a young girl while being pursued by the evil forces of the Deacon.


TiTLE............: Waterworld.1995.480p.BRRip.XviD.AC3-PRESTiGE

iMDB.............:  http://www.imdb.com/title/tt0114898/

GENRE............: Action | Adventure | Sci-Fi

LANGUAGE.........: English

FORMAT...........: AVi

SOURCE...........: Waterworld 1995 BDripx264 720p - PRESTiGE MANY THANKS!!!

FiLE SiZE........: 1.80 GB

SAMPLE iNCLUDED..: YES

SUBS.............: English Sub (If needed)

DURATiON.........: 2h 15mn

ENCODED by.......: akosipalos

ENCODERS NOTE....: Thanks for whitestag13 for this source.. ENjoy 



ViDEO iNFO:

ID : 0
Format : MPEG-4 Visual
Format profile : Advanced Simple@L5
Format settings, BVOP : 2
Format settings, QPel : No
Format settings, GMC : No warppoints
Format settings, Matrix : Default (H.263)
Codec ID : XVID
Codec ID/Hint : XviD
Duration : 2h 15mn
Bit rate : 1 447 Kbps
Width : 720 pixels
Height : 384 pixels
Display aspect ratio : 1.875
Frame rate : 23.976 fps
Color space : YUV
Chroma subsampling : 4:2:0
Bit depth : 8 bits
Scan type : Progressive
Compression mode : Lossy
Bits/(Pixel*Frame) : 0.218
Stream size : 1.37 GiB (76%)
Writing library : XviD 1.2.1 (UTC 2008-12-04)


AUDiO iNFO:

ID : 1
Format : AC-3
Format/Info : Audio Coding 3
Mode extension : CM (complete main)
Codec ID : 2000
Duration : 2h 15mn
Bit rate mode : Constant
Bit rate : 448 Kbps
Channel(s) : 6 channels
Channel positions : Front: L C R, Side: L R, LFE
Sampling rate : 48.0 KHz
Bit depth : 16 bits
Compression mode : Lossy
Stream size : 433 MiB (24%)
Alignment : Aligned on interleaves
Interleave, duration : 64 ms (1.53 video frames)
Interleave, preload duration : 192 ms
Title : T2_Audio - 5.1 channels


--------------------------------------------------------------------------------
PLOT: 
--------------------------------------------------------------------------------


In a future where the polar ice caps have melted and most of Earth is underwater, a mutated mariner fights starvation and outlaw "smokers," and reluctantly helps a woman and a young girl try to find dry land.


--------------------------------------------------------------------------------
CAST: 
--------------------------------------------------------------------------------


Kevin Costner

Jeanne Tripplehorn

Dennis Hopper


--------------------------------------------------------------------------------
SCREENS: 
--------------------------------------------------------------------------------
  http://www.imagebam.com/image/efe308145368323
--------------------------------------------------------------------------------
Release Notes 
--------------------------------------------------------------------------------

WE DONT RELEASE EVERYTHING TO OTHERS SITES YOU WANT MORE OF OUR STUFF COME FIND US AT .......

WE ARE LOOKING FOR SUPPLIERS BLURAY CAM R5 PRE RETAIL DVD GOT SOMETHING WE MIGHT LIKE WHEN YOU FIND US TELL US.......



ENCODER'S - ANYTHING AT ALL EMAIL US AT..... prestige@hushmail.me

